<svg xmlns="http://www.w3.org/2000/svg" version="1.1" xmlns:xlink="http://www.w3.org/1999/xlink" xmlns:svgjs="http://svgjs.dev/svgjs" width="100%" height="100%" viewBox="0 0 1000 600"><rect width="1000" height="600" x="0" y="0" fill="#fafae6"/><g><circle r="166.66666666666666" cx="222.22225443522134" cy="244.44447157118097" fill="#00a86b" transform="matrix(2.25000013732911,0,0,2.25000013732911,0,-250.00002975464122)"/><path d="M203.2194821946259 171.32202584024412L203.2194821946259 173.05517566233863Q203.2194821946259 173.65352500568076 200.24836821389246 173.65352500568076Q197.27725423315906 173.65352500568076 194.36803846035758 175.71679860341231Q191.4588226875561 177.78007220114387 191.4588226875561 184.01115846629313L191.4588226875561 184.01115846629313L191.4588226875561 273.7429272316378Q191.4588226875561 289.9189922378531 182.25662244167344 303.846089022541L182.25662244167344 303.846089022541Q175.94300523261492 313.50220945992464 166.45194668304984 317.4224292956145L166.45194668304984 317.4224292956145Q161.5826209924034 319.4444374213914 156.40380426209722 319.4444374213914Q151.20435479581374 319.4444374213914 146.27313089723538 317.1335709919321Q141.34190699865698 314.8020718264955 141.34190699865698 311.892856053694Q141.34190699865698 309.00427301686983 143.67340616409362 307.0854285709795Q145.98427259355293 305.1459513891118 148.4602009108308 305.1459513891118Q150.91549649213133 305.1459513891118 152.50421716238463 305.6617697885447Q154.11357056861522 306.1775881879776 155.31026925529952 306.9409994191383Q156.50696794198382 307.6837779143217 157.4148083249857 308.5916182973235Q158.32264870798755 309.49945868032546 159.95263485019547 310.77868831091894Q161.5826209924034 312.0372852055352 164.40930582129562 312.0372852055352L164.40930582129562 312.0372852055352Q170.00077727114808 312.0372852055352 172.93062577992686 307.37428687466195Q175.881107024683 302.69065580781137 176.60325278388902 296.3357731267982Q177.32539854309505 290.00152318176237 177.32539854309505 280.2835045364468L177.32539854309505 280.2835045364468L177.32539854309505 182.33990685213058Q177.32539854309505 175.01528558018362 169.13420236010083 173.9423833093632L169.13420236010083 173.9423833093632Q166.51384489098177 173.65352500568076 163.25387260656595 173.65352500568076L163.25387260656595 173.65352500568076Q162.67615599920111 173.65352500568076 162.67615599920111 173.05517566233863L162.67615599920111 173.05517566233863L162.67615599920111 171.32202584024412Q162.67615599920111 170.7443092328793 163.25387260656595 170.7443092328793L163.25387260656595 170.7443092328793L202.64176558726106 170.7443092328793Q203.2194821946259 170.7443092328793 203.2194821946259 171.32202584024412L203.2194821946259 171.32202584024412ZM263.4258057764323 273.0207814724318L211.05992186600574 273.0207814724318Q210.4615725226636 273.0207814724318 210.4615725226636 272.44306486506696L210.4615725226636 272.44306486506696L210.4615725226636 270.6892823069951Q210.4615725226636 270.1115656996303 211.49320932152935 270.1115656996303L211.49320932152935 270.1115656996303Q214.8976107577864 270.1115656996303 219.0241579532495 269.38941994042426L219.0241579532495 269.38941994042426Q232.3116399226406 267.1404517188969 232.3116399226406 260.24911790247353L232.3116399226406 260.24911790247353L232.3116399226406 183.72230016261068Q231.58949416343458 174.43756897281878 223.81095269998667 173.65352500568076L223.81095269998667 173.65352500568076Q221.50008627052736 173.36466670199837 218.67340144163512 173.36466670199837L218.67340144163512 173.36466670199837L214.52622151019474 173.36466670199837Q213.9485049028299 173.36466670199837 213.9485049028299 172.76631735865618L213.9485049028299 172.76631735865618L213.9485049028299 170.97126932862977Q213.9485049028299 170.37291998528764 214.52622151019474 170.37291998528764L214.52622151019474 170.37291998528764L217.72429558667864 170.31102177735568L230.20710085295445 170.22849083344641L256.018653560576 169.44444686630845Q297.5110856109573 169.44444686630845 297.5110856109573 193.95613720735912L297.5110856109573 193.95613720735912Q297.5110856109573 204.33440340394878 286.7820629027533 211.22573722037214L286.7820629027533 211.22573722037214Q285.11081128859075 212.29863949119255 283.9141126019065 212.81445789062542Q282.7174139152221 213.3302762900583 282.57298476338093 213.39217449799025L282.57298476338093 213.39217449799025Q292.1465742568553 218.75668585209223 297.6348820268212 225.44169230874246Q303.1025570608098 232.10606602941533 303.1025570608098 241.39079721920723L303.1025570608098 241.39079721920723Q303.1025570608098 261.19822375743 284.3886655293847 268.95613248490065L284.3886655293847 268.95613248490065Q274.7325450920011 273.0207814724318 263.4258057764323 273.0207814724318L263.4258057764323 273.0207814724318ZM259.2992585809692 216.4458194226329L247.76555916964983 216.4458194226329Q246.81645331469335 216.4458194226329 246.81645331469335 217.2298633897709L246.81645331469335 217.2298633897709L246.81645331469335 256.9891456180577Q246.81645331469335 262.14732961238656 251.64451353338515 265.26287274496116Q256.4519410160997 268.3784158775358 262.0434124659521 268.3784158775358L262.0434124659521 268.3784158775358Q272.77243517415616 268.3784158775358 280.32401654185355 260.7236708299518Q287.87559790955095 253.06892578236778 287.87559790955095 241.8653501466855Q287.87559790955095 230.66177451100322 279.7875654064434 223.54348059882943Q271.6995329033357 216.4458194226329 259.2992585809692 216.4458194226329L259.2992585809692 216.4458194226329ZM246.67202416285213 177.34678474562025L246.67202416285213 210.56548966909804Q246.67202416285213 211.94788297957814 248.34327577701467 211.94788297957814L248.34327577701467 211.94788297957814L266.1699596614152 211.94788297957814Q273.1438244217478 211.94788297957814 277.88935369653035 206.7896989852493Q282.6555157072902 201.65214772689774 282.6555157072902 195.25599957393L282.6555157072902 195.25599957393Q282.6555157072902 183.8667293144519 276.19746934639045 178.7498107920777Q269.73942298549076 173.65352500568076 258.98976754130945 173.65352500568076L258.98976754130945 173.65352500568076Q255.7297952568936 173.85985236545395 254.47119836227736 173.85985236545395Q253.19196873168383 173.85985236545395 251.80957542120368 173.8185868934993Q250.44781484670088 173.79795415752199 249.06542153622073 174.0042815172951Q247.6830282257406 174.2312416130456 247.1672098263077 174.95338737225165Q246.67202416285213 175.6755331314577 246.67202416285213 177.34678474562025L246.67202416285213 177.34678474562025Z " fill="#5a4fcf" transform="matrix(2.25000013732911,0,0,2.25000013732911,0,-250.00002975464122)"/><path d="MNaN 244.44443766276106 " fill="#fafae6" transform="matrix(2.25000013732911,0,0,2.25000013732911,0,-250.00002975464122)"/></g></svg>